<svg width="91" height="91" viewBox="0 0 91 91" fill="none" xmlns="http://www.w3.org/2000/svg">
<!-- <path d="M45.5579 91C20.0543 90.9945 -0.0165362 70.7581 1.02233e-05 45.0725C0.0165567 20.0984 20.4845 -0.0220781 45.8558 -1.62066e-05C70.9953 0.0220457 91.0276 20.4624 91 46.0653C90.9724 70.7471 70.4879 91.0055 45.5579 91ZM45.4807 89.3508C69.5779 89.3619 89.3288 69.6771 89.3509 45.6296C89.3729 21.4663 69.7488 1.67669 45.7454 1.64911C21.3063 1.62154 1.66017 21.2236 1.64914 45.6461C1.63811 69.6495 21.3891 89.3398 45.4807 89.3508Z" fill="white"/> -->
<path d="M51.8952 31.0136C58.6462 40.9194 58.7785 50.3067 52.2923 59.6665C57.1239 62.4849 64.2389 59.9368 69.4675 53.3017C71.4311 54.4378 73.4442 55.6016 75.4519 56.7599C70.4769 66.3789 58.3483 70.51 47.8193 66.2355C46.1867 65.5736 44.8795 65.5184 43.2028 66.2465C33.2032 70.6203 21.3008 66.6105 15.5482 56.8702C17.5337 55.6733 19.5193 54.4764 21.5821 53.2299C25.9835 59.3466 31.5762 61.8562 38.9724 60.1353C32.8392 51.3933 31.9898 41.3992 38.7242 31.4989C33.2087 29.0721 26.8715 31.4658 21.549 38.1451C19.6462 37.0034 17.7102 35.8396 15.5316 34.538C18.9292 28.4765 24.0861 25.0568 30.6496 23.7662C34.9516 22.9224 39.1986 23.4574 43.3683 25.0017C44.6423 25.476 46.4018 25.5202 47.6538 25.0293C58.2325 20.9092 70.0191 24.7866 75.507 34.5214C73.5876 35.6852 71.6627 36.8545 69.5062 38.1616C67.1069 34.6648 64.0238 31.9071 59.821 31.0908C57.4824 30.6385 54.9784 31.0081 51.8952 31.0081V31.0136ZM45.5579 35.3708C39.3916 40.9194 40.3182 51.9669 45.6572 55.8333C51.2168 49.9427 51.2499 41.5757 45.5579 35.3708Z" fill="white"/>
</svg>
